<svg width="40" height="48" viewBox="0 0 40 48" fill="none" xmlns="http://www.w3.org/2000/svg">
<path d="M36 15.6364C36 17.0338 35.5707 19.4056 34.7436 22.2335C33.9233 25.0379 32.7352 28.2113 31.27 31.1899C29.8008 34.1765 28.0754 36.9212 26.1966 38.9041C24.3035 40.9021 22.3786 42 20.5 42C18.6214 42 16.6965 40.9021 14.8034 38.9041C12.9246 36.9212 11.1992 34.1765 9.73005 31.1899C8.26478 28.2113 7.07674 25.0379 6.25644 22.2335C5.42926 19.4056 5 17.0338 5 15.6364C5 12.893 6.68006 9.21809 9.55719 6.19437C12.4154 3.19048 16.295 1 20.5 1C24.705 1 28.5846 3.19048 31.4428 6.19437C34.3199 9.21809 36 12.893 36 15.6364Z" stroke="#156CBC" stroke-width="2"/>
<circle cx="20.5" cy="16.5" r="3.5" stroke="black" stroke-width="2"/>
<path d="M39.5 44.5C39.5 44.5335 39.4819 44.6431 39.2687 44.8254C39.0592 45.0045 38.7206 45.2003 38.2371 45.4003C37.2746 45.7986 35.8515 46.1681 34.0559 46.4824C30.4729 47.1094 25.5031 47.5 20 47.5C14.4969 47.5 9.5271 47.1094 5.94405 46.4824C4.14847 46.1681 2.7254 45.7986 1.76286 45.4003C1.2794 45.2003 0.940782 45.0045 0.7313 44.8254C0.518137 44.6431 0.5 44.5335 0.5 44.5C0.5 44.4665 0.518137 44.3569 0.7313 44.1746C0.940782 43.9955 1.2794 43.7997 1.76286 43.5997C2.7254 43.2014 4.14847 42.8319 5.94405 42.5176C9.5271 41.8906 14.4969 41.5 20 41.5C25.5031 41.5 30.4729 41.8906 34.0559 42.5176C35.8515 42.8319 37.2746 43.2014 38.2371 43.5997C38.7206 43.7997 39.0592 43.9955 39.2687 44.1746C39.4819 44.3569 39.5 44.4665 39.5 44.5Z" stroke="#156CBC"/>
</svg>
