<svg width="20" height="48" viewBox="0 0 20 48" fill="none" xmlns="http://www.w3.org/2000/svg">
<ellipse cx="9.5" cy="6" rx="7.5" ry="6" fill="black"/>
<mask id="path-2-inside-1_2_67" fill="white">
<path d="M0 19C0 16.2386 2.23858 14 5 14H15C17.7614 14 20 16.2386 20 19V36H0V19Z"/>
</mask>
<path d="M-2 19C-2 15.134 1.13401 12 5 12H15C18.866 12 22 15.134 22 19H18C18 17.3431 16.6569 16 15 16H5C3.34315 16 2 17.3431 2 19H-2ZM20 36H0H20ZM-2 36V19C-2 15.134 1.13401 12 5 12V16C3.34315 16 2 17.3431 2 19V36H-2ZM15 12C18.866 12 22 15.134 22 19V36H18V19C18 17.3431 16.6569 16 15 16V12Z" fill="black" mask="url(#path-2-inside-1_2_67)"/>
<path d="M3 37C3 36.4477 3.44772 36 4 36H8C8.55228 36 9 36.4477 9 37V46C9 46.5523 8.55228 47 8 47H4C3.44772 47 3 46.5523 3 46V37Z" stroke="black" stroke-width="2"/>
<path d="M11 37C11 36.4477 11.4477 36 12 36H16C16.5523 36 17 36.4477 17 37V46C17 46.5523 16.5523 47 16 47H12C11.4477 47 11 46.5523 11 46V37Z" stroke="black" stroke-width="2"/>
</svg>
